<?xml version="1.0" encoding="UTF-8" standalone="no"?>
<svg
   xmlns:dc="http://purl.org/dc/elements/1.1/"
   xmlns:cc="http://creativecommons.org/ns#"
   xmlns:rdf="http://www.w3.org/1999/02/22-rdf-syntax-ns#"
   xmlns:svg="http://www.w3.org/2000/svg"
   xmlns="http://www.w3.org/2000/svg"
   id="svg8"
   version="1.1"
   viewBox="0 0 240 45"
   height="45"
   width="240">
  <defs
     id="defs2" />
  <metadata
     id="metadata5">
    <rdf:RDF>
      <cc:Work
         rdf:about="">
        <dc:format>image/svg+xml</dc:format>
        <dc:type
           rdf:resource="http://purl.org/dc/dcmitype/StillImage" />
        <dc:title></dc:title>
      </cc:Work>
    </rdf:RDF>
  </metadata>
  <g
     transform="translate(0,-619.70831)"
     id="layer1">
    <path
       id="path4123"
       transform="translate(0,619.70831)"
       d="M 22.626953 0.16210938 C 19.38161 0.077909375 15.452007 1.2303094 12.089844 3.9121094 C 7.606959 7.4878594 4.2468347 13.865726 5.2070312 23.603516 A 0.76372163 0.76372163 0 1 0 6.7265625 23.453125 C 5.8063406 14.120745 8.9539972 8.3689719 13.042969 5.1074219 C 17.13194 1.8458819 22.274817 1.1581762 25.117188 2.0976562 A 0.76372163 0.76372163 0 1 0 25.597656 0.6484375 C 24.714211 0.3564375 23.708735 0.19016937 22.626953 0.16210938 z M 30.359375 1.4199219 A 1.5778591 1.5778591 0 0 0 28.783203 2.9980469 A 1.5778591 1.5778591 0 0 0 30.359375 4.5761719 A 1.5778591 1.5778591 0 0 0 31.9375 2.9980469 A 1.5778591 1.5778591 0 0 0 30.359375 1.4199219 z M 26.515625 3.3027344 A 1.5778591 1.5778591 0 0 0 24.9375 4.8808594 A 1.5778591 1.5778591 0 0 0 26.515625 6.4589844 A 1.5778591 1.5778591 0 0 0 28.091797 4.8808594 A 1.5778591 1.5778591 0 0 0 26.515625 3.3027344 z M 34.802734 5.0332031 A 0.76372164 0.76372164 0 0 0 34.371094 6.4082031 C 37.994399 9.1869231 40.507995 12.326155 41.798828 15.453125 C 42.800971 16.592045 43.639421 17.855137 44.291016 19.216797 C 43.902049 14.320777 40.676912 9.3202256 35.300781 5.1972656 A 0.76372164 0.76372164 0 0 0 34.802734 5.0332031 z M 23.578125 6.6132812 A 1.5778591 1.5778591 0 0 0 22 8.1914062 A 1.5778591 1.5778591 0 0 0 23.578125 9.7695312 A 1.5778591 1.5778591 0 0 0 25.15625 8.1914062 A 1.5778591 1.5778591 0 0 0 23.578125 6.6132812 z M 136.2207 9.1230469 L 132.58398 9.359375 L 132.58398 14.287109 C 132.58398 15.129256 132.63012 16.003223 132.72266 16.910156 C 131.82498 15.373936 130.29443 14.605469 128.12891 14.605469 C 126.13922 14.605469 124.57579 15.327811 123.4375 16.771484 C 122.30847 18.205918 121.74219 20.107449 121.74219 22.476562 C 121.74219 24.919709 122.31289 26.871791 123.45117 28.333984 C 124.58946 29.796171 126.15289 30.527344 128.14258 30.527344 C 128.69784 30.527344 129.20278 30.472335 129.65625 30.361328 C 130.11896 30.259521 130.49683 30.138813 130.79297 30 C 131.09836 29.851933 131.3815 29.663007 131.64062 29.431641 C 131.89974 29.191034 132.09505 28.982474 132.22461 28.806641 C 132.36342 28.621554 132.51064 28.40417 132.66797 28.154297 L 133.07031 30.236328 L 136.2207 30.236328 L 136.2207 9.1230469 z M 143.63477 9.1230469 L 139.99805 9.359375 L 139.99805 24.226562 C 139.99805 25.327829 140.0751 26.247928 140.23242 26.988281 C 140.38975 27.728635 140.66847 28.367557 141.06641 28.904297 C 141.46435 29.44105 142.00463 29.834111 142.68945 30.083984 C 143.38353 30.324591 144.25504 30.445312 145.30078 30.445312 C 145.5599 30.445312 145.84109 30.425739 146.14648 30.388672 C 146.45188 30.360939 146.70214 30.328082 146.89648 30.291016 C 147.10008 30.263256 147.30863 30.227974 147.52148 30.181641 C 147.74357 30.135441 147.85987 30.111328 147.86914 30.111328 L 147.77148 27.515625 C 147.0589 27.617472 146.47053 27.667969 146.00781 27.667969 C 145.07312 27.667969 144.44499 27.428492 144.12109 26.947266 C 143.79719 26.456786 143.63477 25.525897 143.63477 24.15625 L 143.63477 9.1230469 z M 26.982422 10.246094 L 26.982422 11.783203 C 31.220788 12.195383 34.889985 13.624984 37.611328 15.771484 C 42.230489 19.414944 44.213887 25.041486 41.763672 31.697266 A 0.76372164 0.76372164 0 1 0 43.197266 32.222656 C 45.84123 25.040576 43.622872 18.568356 38.556641 14.572266 C 35.538136 12.191366 31.541369 10.661834 26.982422 10.246094 z M 19.824219 10.484375 C 18.912467 10.621995 17.991303 10.799834 17.058594 11.021484 A 0.76382166 0.76382166 0 0 0 17.412109 12.505859 C 18.226038 12.312439 19.02939 12.155057 19.824219 12.029297 L 19.824219 11.320312 L 19.824219 10.484375 z M 235.86328 10.830078 L 233.64258 10.84375 L 232.47656 14.980469 L 229.86719 15.216797 L 229.72852 17.1875 L 232.22656 17.1875 L 232.22656 24.392578 C 232.22656 25.447578 232.30556 26.336747 232.46289 27.058594 C 232.62947 27.771167 232.90625 28.390469 233.29492 28.917969 C 233.68361 29.445469 234.22143 29.834111 234.90625 30.083984 C 235.60033 30.324591 236.46546 30.445312 237.50195 30.445312 C 237.76107 30.445312 238.03785 30.430077 238.33398 30.402344 C 238.63014 30.37461 238.87155 30.343707 239.05664 30.306641 C 239.25097 30.278907 239.44875 30.246051 239.65234 30.208984 C 239.86524 30.162651 239.98153 30.138672 240 30.138672 L 239.90234 27.529297 C 239.30082 27.62185 238.73648 27.667969 238.20898 27.667969 C 237.3113 27.667969 236.69643 27.424074 236.36328 26.933594 C 236.03012 26.443114 235.86328 25.617731 235.86328 24.460938 L 235.86328 17.1875 L 239.65234 17.1875 L 239.65234 14.980469 L 235.86328 14.980469 L 235.86328 10.830078 z M 13.427734 11.039062 A 1.5778591 1.5778591 0 0 0 11.851562 12.617188 A 1.5778591 1.5778591 0 0 0 13.427734 14.195312 A 1.5778591 1.5778591 0 0 0 15.005859 12.617188 A 1.5778591 1.5778591 0 0 0 13.427734 11.039062 z M 21.332031 11.320312 L 21.332031 17.150391 L 15.501953 17.150391 L 15.501953 21.292969 L 21.332031 21.292969 L 21.332031 32.548828 L 25.474609 32.548828 L 25.474609 21.292969 L 31.304688 21.292969 L 31.304688 17.150391 L 25.474609 17.150391 L 25.474609 11.320312 L 21.332031 11.320312 z M 9.765625 13.121094 A 0.76372162 0.76372162 0 0 0 9.5644531 13.154297 C 9.4500784 13.187897 9.3351065 13.223786 9.2226562 13.259766 C 9.0260135 13.832476 8.8550364 14.435422 8.7089844 15.070312 C 9.1205947 14.901083 9.5486091 14.749941 9.9941406 14.619141 A 0.76372162 0.76372162 0 0 0 9.765625 13.121094 z M 68.646484 14.605469 C 66.286623 14.605469 64.457719 15.318981 63.162109 16.744141 C 61.866499 18.160061 61.21875 20.098887 61.21875 22.560547 C 61.21875 24.948174 61.866499 26.871791 63.162109 28.333984 C 64.457719 29.796171 66.236077 30.527344 68.494141 30.527344 C 70.844747 30.527344 72.671697 29.811386 73.976562 28.376953 C 75.281428 26.93328 75.933594 24.994447 75.933594 22.560547 C 75.933594 20.15442 75.285844 18.228843 73.990234 16.785156 C 72.703878 15.33223 70.923056 14.605469 68.646484 14.605469 z M 87.330078 14.605469 C 86.765563 14.605469 86.234111 14.655973 85.734375 14.757812 C 85.243894 14.859619 84.826786 14.984739 84.484375 15.132812 C 84.151217 15.280879 83.832736 15.471765 83.527344 15.703125 C 83.231204 15.925225 82.994191 16.127413 82.818359 16.3125 C 82.65178 16.488333 82.476103 16.692461 82.291016 16.923828 L 81.875 14.980469 L 78.931641 14.980469 L 78.931641 30.236328 L 82.570312 30.236328 L 82.570312 22.837891 C 82.570312 21.533031 82.675821 20.413202 82.888672 19.478516 C 83.175557 18.849209 83.597082 18.339845 84.152344 17.951172 C 84.707605 17.562485 85.368607 17.369141 86.136719 17.369141 C 87.080663 17.369141 87.732829 17.700874 88.09375 18.367188 C 88.454669 19.033501 88.634766 20.04781 88.634766 21.408203 L 88.634766 30.236328 L 92.273438 30.236328 L 92.273438 21.310547 C 92.36598 20.514674 92.541659 19.834051 92.800781 19.269531 C 93.420823 17.992438 94.437599 17.353516 95.853516 17.353516 C 96.778952 17.353516 97.404613 17.687202 97.728516 18.353516 C 98.061672 19.010569 98.228516 20.084265 98.228516 21.574219 L 98.228516 30.236328 L 101.87891 30.236328 L 101.87891 20.492188 C 101.87891 18.548768 101.46622 17.08201 100.64258 16.091797 C 99.828195 15.101584 98.547901 14.605469 96.798828 14.605469 C 95.734577 14.605469 94.766395 14.818447 93.896484 15.244141 C 93.026576 15.669847 92.319446 16.275887 91.773438 17.0625 C 91.477299 16.405447 90.963517 15.832277 90.232422 15.341797 C 89.510582 14.851317 88.542399 14.605469 87.330078 14.605469 z M 112.17969 14.605469 C 109.81983 14.605469 107.99093 15.318981 106.69531 16.744141 C 105.39971 18.160061 104.75195 20.098887 104.75195 22.560547 C 104.75195 24.948174 105.39971 26.871791 106.69531 28.333984 C 107.99093 29.796171 109.76733 30.527344 112.02539 30.527344 C 114.376 30.527344 116.2049 29.811386 117.50977 28.376953 C 118.81463 26.93328 119.4668 24.994447 119.4668 22.560547 C 119.4668 20.15442 118.81905 18.228843 117.52344 16.785156 C 116.23708 15.33223 114.45626 14.605469 112.17969 14.605469 z M 158.07031 14.605469 C 157.50579 14.605469 156.97434 14.655973 156.47461 14.757812 C 155.98413 14.859619 155.56702 14.984739 155.22461 15.132812 C 154.89146 15.280879 154.57297 15.471765 154.26758 15.703125 C 153.97144 15.925225 153.73638 16.127413 153.56055 16.3125 C 153.39397 16.488333 153.21634 16.692461 153.03125 16.923828 L 152.61523 14.980469 L 149.67188 14.980469 L 149.67188 30.236328 L 153.31055 30.236328 L 153.31055 22.837891 C 153.31055 21.533031 153.41607 20.413202 153.62891 19.478516 C 153.9158 18.849209 154.33732 18.339845 154.89258 17.951172 C 155.44784 17.562485 156.10885 17.369141 156.87695 17.369141 C 157.82091 17.369141 158.47306 17.700874 158.83398 18.367188 C 159.1949 19.033501 159.37695 20.04781 159.37695 21.408203 L 159.37695 30.236328 L 163.01367 30.236328 L 163.01367 21.310547 C 163.10623 20.514674 163.2819 19.834051 163.54102 19.269531 C 164.16106 17.992438 165.17783 17.353516 166.59375 17.353516 C 167.51919 17.353516 168.14484 17.687202 168.46875 18.353516 C 168.8019 19.010569 168.96875 20.084265 168.96875 21.574219 L 168.96875 30.236328 L 172.61914 30.236328 L 172.61914 20.492188 C 172.61914 18.548768 172.20645 17.08201 171.38281 16.091797 C 170.56843 15.101584 169.28814 14.605469 167.53906 14.605469 C 166.47482 14.605469 165.50663 14.818447 164.63672 15.244141 C 163.76681 15.669847 163.05968 16.275887 162.51367 17.0625 C 162.21753 16.405447 161.70376 15.832277 160.97266 15.341797 C 160.25083 14.851317 159.28264 14.605469 158.07031 14.605469 z M 206.43359 14.605469 C 204.53646 14.605469 202.8106 15.373936 201.25586 16.910156 L 200.85352 14.980469 L 197.92578 14.980469 L 197.92578 30.236328 L 201.5625 30.236328 L 201.5625 22.810547 C 201.5625 21.311347 201.65034 20.200349 201.82617 19.478516 C 202.12231 18.867722 202.59439 18.362777 203.24219 17.964844 C 203.89925 17.55765 204.61964 17.353516 205.40625 17.353516 C 206.41498 17.353516 207.11522 17.660704 207.50391 18.271484 C 207.89258 18.882284 208.09034 19.802383 208.09961 21.033203 L 208.09961 30.236328 L 211.75195 30.236328 L 211.75195 20.587891 C 211.75195 18.644484 211.30638 17.164464 210.41797 16.146484 C 209.5388 15.119251 208.21043 14.605469 206.43359 14.605469 z M 221.82812 14.605469 C 219.60708 14.614722 217.85473 15.337064 216.56836 16.771484 C 215.28201 18.205918 214.63867 20.135914 214.63867 22.560547 C 214.63867 25.049974 215.31929 27.002055 216.67969 28.417969 C 218.04933 29.824635 219.95971 30.527344 222.41211 30.527344 C 224.52211 30.527344 226.34021 30.055268 227.86719 29.111328 L 227.35352 26.529297 C 225.81729 27.39921 224.21656 27.835938 222.55078 27.835938 C 221.24591 27.835938 220.21835 27.445342 219.46875 26.667969 C 218.72846 25.881349 218.3398 24.776736 218.30273 23.351562 L 228.45117 23.351562 L 228.45117 22.574219 C 228.46044 22.222552 228.46484 21.967874 228.46484 21.810547 C 228.46484 19.635774 227.88089 17.890285 226.71484 16.576172 C 225.55805 15.262059 223.92886 14.605469 221.82812 14.605469 z M 174.22852 14.980469 L 180.36523 29.958984 C 180.03213 30.912178 179.84761 31.43479 179.81055 31.527344 C 179.47739 32.378744 179.05587 32.971528 178.54688 33.304688 C 178.03789 33.637841 177.36168 33.804688 176.51953 33.804688 C 175.86246 33.804688 175.32218 33.780708 174.89648 33.734375 L 175.07617 36.552734 C 175.74249 36.626828 176.37256 36.664062 176.96484 36.664062 C 178.53808 36.664062 179.82279 36.293088 180.82227 35.552734 C 181.82174 34.821634 182.65154 33.600712 183.30859 31.888672 C 183.34561 31.796119 185.47779 26.159735 189.70703 14.980469 L 185.82031 14.980469 C 185.71851 15.276615 185.14975 16.91905 184.11328 19.908203 C 183.08605 22.897356 182.42311 24.943642 182.12695 26.044922 L 178.11523 14.980469 L 174.22852 14.980469 z M 3.6855469 16.642578 C 0.28168122 20.125228 -0.85326488 25.229772 0.65234375 29.632812 C 1.5596668 32.286213 3.4373018 34.680593 6.2871094 36.283203 C 5.7817983 35.420973 5.3691512 34.512973 5.0605469 33.564453 C 3.6338297 32.309153 2.6600866 30.783462 2.0976562 29.138672 C 0.9934765 25.909582 1.4922318 22.218709 3.46875 19.292969 C 3.501739 18.378489 3.575089 17.495188 3.6855469 16.642578 z M 221.84375 17.201172 C 222.84322 17.201172 223.62495 17.534859 224.18945 18.201172 C 224.75397 18.867485 225.03516 19.820474 225.03516 21.060547 L 218.37305 21.060547 C 218.4656 19.783454 218.8302 18.821635 219.46875 18.173828 C 220.11656 17.526028 220.90906 17.201172 221.84375 17.201172 z M 68.5625 17.353516 C 69.811839 17.353516 70.747146 17.79908 71.367188 18.6875 C 71.987231 19.575907 72.296875 20.866994 72.296875 22.560547 C 72.296875 24.23558 71.987231 25.522242 71.367188 26.419922 C 70.747146 27.317595 69.820674 27.765625 68.589844 27.765625 C 67.34976 27.765625 66.416406 27.317595 65.787109 26.419922 C 65.157813 25.522242 64.841797 24.239999 64.841797 22.574219 C 64.841797 20.880672 65.153395 19.589585 65.773438 18.701172 C 66.402733 17.803499 67.33167 17.353516 68.5625 17.353516 z M 112.0957 17.353516 C 113.34504 17.353516 114.28034 17.79908 114.90039 18.6875 C 115.52043 19.575907 115.83008 20.866994 115.83008 22.560547 C 115.83008 24.23558 115.52043 25.522242 114.90039 26.419922 C 114.28034 27.317595 113.35387 27.765625 112.12305 27.765625 C 110.88297 27.765625 109.94766 27.317595 109.31836 26.419922 C 108.68907 25.522242 108.375 24.239999 108.375 22.574219 C 108.375 20.880672 108.68465 19.589585 109.30469 18.701172 C 109.93398 17.803499 110.86487 17.353516 112.0957 17.353516 z M 128.96094 17.382812 C 130.21028 17.382812 131.15 17.813168 131.7793 18.673828 C 132.4086 19.534481 132.72266 20.90261 132.72266 22.78125 C 132.68564 26.103557 131.44706 27.765625 129.00391 27.765625 C 127.88413 27.765625 126.99495 27.322014 126.33789 26.433594 C 125.69008 25.545174 125.36719 24.254094 125.36719 22.560547 C 125.36719 20.857754 125.69008 19.571085 126.33789 18.701172 C 126.99495 17.822005 127.86892 17.382812 128.96094 17.382812 z M 41.246094 25.693359 C 39.634221 28.310539 36.719671 30.628991 32.246094 32.369141 A 0.76375074 0.76375074 0 1 0 32.798828 33.792969 C 36.38408 32.398369 39.112687 30.574763 41.013672 28.476562 C 41.19743 27.508822 41.27143 26.580729 41.246094 25.693359 z M 6.2871094 26.193359 A 1.5778591 1.5778591 0 0 0 4.7089844 27.771484 A 1.5778591 1.5778591 0 0 0 6.2871094 29.349609 A 1.5778591 1.5778591 0 0 0 7.8652344 27.771484 A 1.5778591 1.5778591 0 0 0 6.2871094 26.193359 z M 192.92773 26.224609 C 192.31694 26.224609 191.80316 26.437588 191.38672 26.863281 C 190.97952 27.288988 190.77539 27.793933 190.77539 28.376953 C 190.77539 28.950726 190.98394 29.444875 191.40039 29.861328 C 191.81683 30.277768 192.32619 30.486328 192.92773 30.486328 C 193.52001 30.486328 194.02053 30.277768 194.42773 29.861328 C 194.83491 29.444875 195.03711 28.950726 195.03711 28.376953 C 195.03711 27.793933 194.83491 27.288988 194.42773 26.863281 C 194.02053 26.437588 193.52001 26.224609 192.92773 26.224609 z M 7.0449219 31.0625 A 0.76372163 0.76372163 0 0 0 6.2949219 32.035156 C 8.0673586 38.585436 13.947104 42.848156 20.464844 44.291016 C 26.982582 45.733856 34.247793 44.403854 38.925781 39.589844 A 0.76372163 0.76372163 0 1 0 37.830078 38.525391 C 33.608601 42.869611 26.883786 44.146738 20.794922 42.798828 C 14.70606 41.450918 9.3625091 37.523779 7.7695312 31.636719 A 0.76372163 0.76372163 0 0 0 7.0449219 31.0625 z M 28.525391 33.292969 A 1.5778591 1.5778591 0 0 0 26.947266 34.871094 A 1.5778591 1.5778591 0 0 0 28.525391 36.447266 A 1.5778591 1.5778591 0 0 0 30.103516 34.871094 A 1.5778591 1.5778591 0 0 0 28.525391 33.292969 z M 40.720703 33.978516 A 1.5778591 1.5778591 0 0 0 39.142578 35.556641 A 1.5778591 1.5778591 0 0 0 40.720703 37.132812 A 1.5778591 1.5778591 0 0 0 42.296875 35.556641 A 1.5778591 1.5778591 0 0 0 40.720703 33.978516 z M 23.800781 35.607422 A 0.76372162 0.76372162 0 0 0 23.560547 35.640625 C 19.333869 36.767465 15.770558 37.039461 12.832031 36.712891 C 13.485983 37.301031 14.211232 37.858551 14.998047 38.369141 C 17.630178 38.393141 20.612125 38.005934 23.953125 37.115234 A 0.76372162 0.76372162 0 0 0 23.800781 35.607422 z "
       style="color:#000000;font-style:normal;font-variant:normal;font-weight:normal;font-stretch:normal;font-size:medium;line-height:normal;font-family:sans-serif;text-indent:0;text-align:start;text-decoration:none;text-decoration-line:none;letter-spacing:normal;word-spacing:normal;text-transform:none;writing-mode:lr-tb;direction:ltr;baseline-shift:baseline;text-anchor:start;display:inline;overflow:visible;visibility:visible;fill:#551adb;fill-opacity:1;fill-rule:nonzero;stroke:none;stroke-width:0.13884459;enable-background:accumulate" />
  </g>
</svg>
