<?xml version="1.0" encoding="UTF-8" standalone="no"?>
<svg
   xmlns:dc="http://purl.org/dc/elements/1.1/"
   xmlns:cc="http://creativecommons.org/ns#"
   xmlns:rdf="http://www.w3.org/1999/02/22-rdf-syntax-ns#"
   xmlns:svg="http://www.w3.org/2000/svg"
   xmlns="http://www.w3.org/2000/svg"
   id="svg8"
   version="1.1"
   viewBox="0 0 256 256"
   height="256"
   width="256">
  <defs
     id="defs2" />
  <metadata
     id="metadata5">
    <rdf:RDF>
      <cc:Work
         rdf:about="">
        <dc:format>image/svg+xml</dc:format>
        <dc:type
           rdf:resource="http://purl.org/dc/dcmitype/StillImage" />
        <dc:title></dc:title>
      </cc:Work>
    </rdf:RDF>
  </metadata>
  <g
     transform="translate(0,-408.70831)"
     id="layer1">
    <path
       id="path4123"
       d="m 128.92534,407.65579 c -18.39227,-0.037 -40.27688,6.68069 -59.09062,21.68735 -25.8942,20.65435 -45.306924,57.49265 -39.760592,113.74039 a 4.411436,4.411436 0 1 0 8.778852,-0.86412 c -5.315423,-53.90605 12.86284,-87.13981 36.48171,-105.97927 23.61886,-18.83944 53.33445,-22.80809 69.75265,-17.3814 a 4.411436,4.411436 0 1 0 2.77002,-8.3715 c -5.10299,-1.68667 -10.91373,-2.64397 -17.16236,-2.80608 -0.58581,-0.0152 -1.17636,-0.0242 -1.76966,-0.0254 z m 46.44255,7.29367 a 9.1140855,9.1140855 0 0 0 -9.11408,9.11408 9.1140855,9.1140855 0 0 0 9.11408,9.11408 9.1140855,9.1140855 0 0 0 9.11409,-9.11408 9.1140855,9.1140855 0 0 0 -9.11409,-9.11408 z m -22.21223,10.87172 a 9.1140855,9.1140855 0 0 0 -9.11409,9.11408 9.1140855,9.1140855 0 0 0 9.11409,9.11409 9.1140855,9.1140855 0 0 0 9.11408,-9.11409 9.1140855,9.1140855 0 0 0 -9.11408,-9.11408 z m 47.87698,9.9929 a 4.4114358,4.4114358 0 0 0 -2.49221,7.94544 c 20.92906,16.05053 35.44441,34.18225 42.90056,52.24437 5.78862,6.57867 10.63125,13.87686 14.39502,21.74212 -2.24677,-28.28057 -20.87672,-57.16979 -51.93051,-80.98499 a 4.4114358,4.4114358 0 0 0 -2.87286,-0.94694 z m -64.83767,9.12744 a 9.1140855,9.1140855 0 0 0 -9.11409,9.11409 9.1140855,9.1140855 0 0 0 9.11409,9.11408 9.1140855,9.1140855 0 0 0 9.11408,-9.11408 9.1140855,9.1140855 0 0 0 -9.11408,-9.11409 z m 19.66125,20.9835 v 8.88436 c 24.4818,2.38082 45.67408,10.63223 61.39318,23.03096 26.68136,21.04544 38.1416,53.54361 23.98858,91.98894 a 4.4114358,4.4114358 0 1 0 8.27667,3.04381 c 15.27216,-41.4854 2.46241,-78.87678 -26.80134,-101.95913 -17.43559,-13.75266 -40.52353,-22.58752 -66.85709,-24.98894 z m -41.34193,1.38234 c -5.26649,0.79487 -10.59682,1.81294 -15.98437,3.09323 a 4.4120136,4.4120136 0 0 0 2.04346,8.58385 c 4.70145,-1.11724 9.3498,-2.02756 13.94091,-2.75399 v -4.10161 z m -36.94783,3.20008 a 9.1140855,9.1140855 0 0 0 -9.11408,9.11408 9.1140855,9.1140855 0 0 0 9.11408,9.11408 9.1140855,9.1140855 0 0 0 9.11408,-9.11408 9.1140855,9.1140855 0 0 0 -9.11408,-9.11408 z m 45.65323,1.62408 v 33.67697 H 89.54272 v 23.92847 h 33.67697 v 65.01264 h 23.92847 v -65.01264 h 33.6783 v -23.92847 h -33.6783 v -33.67697 z m -66.80635,10.4056 a 4.4114357,4.4114357 0 0 0 -1.17264,0.19366 c -0.66066,0.19395 -1.31379,0.39719 -1.96332,0.60502 -1.13586,3.30809 -2.13208,6.79445 -2.97571,10.4617 2.37756,-0.97749 4.8524,-1.85024 7.4259,-2.60574 a 4.4114357,4.4114357 0 0 0 -1.31423,-8.65464 z m -35.124743,20.33439 c -19.6615276,20.11661 -26.2143806,49.60194 -17.5176316,75.03493 5.240912,15.32664 16.0872296,29.15726 32.5483916,38.41431 -2.91879,-4.98044 -5.310764,-10.221 -7.093334,-15.69989 C 20.984972,593.37 15.367149,584.55295 12.118419,575.05228 5.7404184,556.40029 8.6189764,535.0825 20.035812,518.18275 c 0.190554,-5.28224 0.614755,-10.38632 1.252785,-15.31124 z m 216.960333,52.28044 c -9.31056,15.11744 -26.15151,28.51507 -51.99195,38.56657 a 4.4116039,4.4116039 0 1 0 3.19608,8.22324 c 20.70926,-8.05554 36.46637,-18.59624 47.44692,-30.71595 1.06143,-5.58989 1.4953,-10.94819 1.34895,-16.07386 z m -201.930913,2.89423 a 9.1140855,9.1140855 0 0 0 -9.11408,9.11408 9.1140855,9.1140855 0 0 0 9.11408,9.11408 9.1140855,9.1140855 0 0 0 9.114083,-9.11408 9.1140855,9.1140855 0 0 0 -9.114083,-9.11408 z m 4.376733,28.11823 a 4.411436,4.411436 0 0 0 -4.333994,5.62551 c 10.238014,37.83595 44.199784,62.45349 81.847784,70.78774 37.64799,8.33423 79.61522,0.65024 106.63638,-27.1566 a 4.411436,4.411436 0 1 0 -6.32937,-6.14506 c -24.38425,25.09324 -63.22907,32.47425 -98.39979,24.68843 -35.1707,-7.78585 -66.04052,-30.47332 -75.24194,-64.47841 a 4.411436,4.411436 0 0 0 -4.17907,-3.32161 z m 124.07255,12.88312 a 9.1140855,9.1140855 0 0 0 -9.11409,9.11409 9.1140855,9.1140855 0 0 0 9.11409,9.11408 9.1140855,9.1140855 0 0 0 9.11408,-9.11408 9.1140855,9.1140855 0 0 0 -9.11408,-9.11409 z m 70.44048,3.96137 a 9.1140855,9.1140855 0 0 0 -9.11408,9.11408 9.1140855,9.1140855 0 0 0 9.11408,9.11408 9.1140855,9.1140855 0 0 0 9.11409,-9.11408 9.1140855,9.1140855 0 0 0 -9.11409,-9.11408 z m -97.72931,9.40658 a 4.4114357,4.4114357 0 0 0 -1.39036,0.19633 c -24.41427,6.50889 -44.99252,8.0835 -61.96614,6.19715 3.77737,3.39722 7.96834,6.61217 12.51317,9.5615 15.2038,0.13833 32.42776,-2.09667 51.72615,-7.24158 a 4.4114357,4.4114357 0 0 0 -0.88282,-8.7134 z"
       style="color:#000000;font-style:normal;font-variant:normal;font-weight:normal;font-stretch:normal;font-size:medium;line-height:normal;font-family:sans-serif;text-indent:0;text-align:start;text-decoration:none;text-decoration-line:none;letter-spacing:normal;word-spacing:normal;text-transform:none;writing-mode:lr-tb;direction:ltr;baseline-shift:baseline;text-anchor:start;display:inline;overflow:visible;visibility:visible;fill:#551adb;fill-opacity:1;fill-rule:nonzero;stroke:none;stroke-width:0.80199909;enable-background:accumulate" />
  </g>
</svg>
