<?xml version="1.0" encoding="UTF-8"?>
<svg width="74pt" height="3pt" version="1.1" viewBox="0 0 74 3" xmlns="http://www.w3.org/2000/svg">
  <g transform="translate(0 -838.89)">
    <path d="m0.43921 841.06c2.0567-0.0544 4.1039-0.29042 6.1542-0.44382 1.6687-0.12503 6.3953-0.41798 7.7693-0.5049 16.453-0.84788 32.934-0.90892 49.405-1.028 3.2618-0.0652 6.5236-0.13041 9.7853-0.1959 0.58529-0.0113 0.60184 0.81601 0.0164 0.82769-3.2653 0.0652-6.5306 0.1307-9.7959 0.1959-16.455 0.11908-32.921 0.17975-49.358 1.0264-1.3423 0.0848-6.1047 0.38029-7.7514 0.50353-2.0736 0.15536-4.1442 0.39405-6.2244 0.44684-0.5854 0-0.5854-0.8279 0-0.8279z" fill="#5b1adb" opacity=".5"/>
  </g>
</svg>
